<?xml version="1.0" encoding="utf-8"?>
<!-- Generator: Adobe Illustrator 27.0.0, SVG Export Plug-In . SVG Version: 6.00 Build 0)  -->
<svg version="1.1" id="Layer_1" xmlns="http://www.w3.org/2000/svg" xmlns:xlink="http://www.w3.org/1999/xlink" x="0px" y="0px"
	 viewBox="0 0 44.49 24.33" style="enable-background:new 0 0 44.49 24.33;" xml:space="preserve">
<style type="text/css">
	.st0{fill:#58606F;}
</style>
<g>
	<path class="st0" d="M2.4,13.73v9.5H0.59v-9.5H2.4z"/>
	<path class="st0" d="M3.97,23.24v-6.95h1.75v0.92h0.06c0.2-0.34,0.47-0.6,0.82-0.8c0.35-0.2,0.73-0.29,1.16-0.29
		c0.71,0,1.27,0.23,1.66,0.68c0.4,0.46,0.59,1.1,0.59,1.93v4.5H8.27v-4.12c0-0.41-0.11-0.73-0.32-0.98
		c-0.21-0.24-0.49-0.37-0.85-0.37c-0.42,0-0.75,0.13-1,0.4c-0.25,0.26-0.38,0.62-0.38,1.07v4H3.97z"/>
	<path class="st0" d="M13.88,15.04c-0.17,0.15-0.25,0.37-0.25,0.65v0.6h1.72v1.66h-1.72v5.29h-1.75v-5.29H10.9v-1.66h0.98v-0.71
		c0-0.77,0.2-1.36,0.59-1.78c0.39-0.42,0.95-0.63,1.68-0.63c0.52,0,0.94,0.06,1.25,0.19v1.67c-0.33-0.14-0.62-0.22-0.86-0.22
		C14.27,14.81,14.05,14.89,13.88,15.04z"/>
	<path class="st0" d="M16.35,13.73h1.75v7.44c0,0.3,0.15,0.44,0.44,0.44h0.34v1.66H18c-0.54,0-0.95-0.13-1.23-0.4
		c-0.28-0.26-0.43-0.64-0.43-1.14V13.73z"/>
	<path class="st0" d="M20.11,22.88c-0.4-0.35-0.59-0.84-0.59-1.45c0-0.74,0.3-1.31,0.89-1.73s1.41-0.63,2.45-0.63h0.72V18.8
		c0-0.38-0.11-0.67-0.32-0.88c-0.21-0.21-0.51-0.31-0.88-0.31c-0.53,0-1.01,0.24-1.44,0.72l-1.12-0.91c0.74-0.86,1.66-1.3,2.76-1.3
		c0.54,0,1.02,0.11,1.44,0.32c0.42,0.22,0.74,0.52,0.97,0.91s0.34,0.84,0.34,1.35v4.54h-1.75V22.4h-0.07
		c-0.15,0.32-0.39,0.57-0.73,0.74s-0.71,0.26-1.13,0.26C21.02,23.41,20.5,23.23,20.11,22.88z M23.16,21.65
		c0.28-0.2,0.42-0.48,0.42-0.84v-0.3h-0.52c-0.59,0-1.03,0.06-1.33,0.19s-0.44,0.33-0.44,0.61c0,0.18,0.08,0.34,0.23,0.46
		c0.16,0.12,0.37,0.18,0.63,0.18C22.55,21.95,22.88,21.85,23.16,21.65z"/>
	<path class="st0" d="M30.88,17.95h-1.84v2.92c0,0.28,0.08,0.5,0.23,0.65c0.16,0.15,0.38,0.23,0.67,0.23c0.26,0,0.53-0.04,0.79-0.12
		v1.64c-0.37,0.11-0.77,0.17-1.2,0.17c-0.73,0-1.28-0.2-1.67-0.6c-0.38-0.4-0.58-0.98-0.58-1.73v-3.16h-1.08v-1.66h1.08v-2h1.75v2
		h1.84V17.95z"/>
	<path class="st0" d="M33.01,22.96c-0.5-0.3-0.88-0.72-1.15-1.27c-0.27-0.55-0.4-1.19-0.4-1.94c0-0.74,0.13-1.38,0.4-1.93
		c0.27-0.55,0.65-0.97,1.15-1.27c0.5-0.3,1.09-0.44,1.76-0.44c0.67,0,1.26,0.15,1.75,0.44c0.5,0.3,0.88,0.72,1.15,1.27
		s0.4,1.19,0.4,1.93c0,0.74-0.13,1.39-0.4,1.94c-0.27,0.55-0.65,0.97-1.15,1.27s-1.08,0.44-1.75,0.44
		C34.09,23.41,33.51,23.26,33.01,22.96z M35.87,21.21c0.27-0.36,0.41-0.84,0.41-1.45c0-0.61-0.14-1.09-0.41-1.45
		s-0.64-0.53-1.1-0.53c-0.47,0-0.84,0.18-1.12,0.53s-0.41,0.84-0.41,1.45c0,0.61,0.14,1.09,0.41,1.45s0.64,0.54,1.12,0.54
		C35.23,21.75,35.6,21.57,35.87,21.21z"/>
	<path class="st0" d="M39.32,23.24l-0.07-6.95h1.82v1.28h0.07c0.5-0.97,1.36-1.45,2.56-1.45h0.07v1.74h-0.11
		c-1.73,0-2.59,0.61-2.59,1.84v3.54H39.32z"/>
</g>
<path class="st0" d="M36.26,1.89l-1.85,1.85h-2.12c-0.28,0-0.5,0.22-0.5,0.5v3c0,0.28,0.22,0.5,0.5,0.5h2.12l1.85,1.85
	c0.31,0.31,0.85,0.09,0.85-0.35V2.25C37.11,1.8,36.57,1.58,36.26,1.89z M41.12,0.83c-0.23-0.15-0.55-0.09-0.7,0.14
	c-0.15,0.23-0.09,0.55,0.14,0.7c1.38,0.91,2.2,2.43,2.2,4.07s-0.82,3.17-2.2,4.07c-0.23,0.15-0.3,0.47-0.14,0.7
	c0.15,0.22,0.46,0.3,0.7,0.14c1.66-1.09,2.66-2.93,2.66-4.91S42.78,1.92,41.12,0.83z M41.78,5.74c0-1.32-0.67-2.54-1.79-3.25
	c-0.23-0.15-0.54-0.08-0.69,0.16c-0.15,0.23-0.08,0.55,0.15,0.69c0.83,0.53,1.32,1.43,1.32,2.4s-0.49,1.87-1.32,2.4
	c-0.23,0.15-0.3,0.46-0.15,0.69c0.14,0.22,0.44,0.32,0.69,0.16C41.11,8.28,41.78,7.06,41.78,5.74z M38.83,4.14
	c-0.24-0.13-0.55-0.04-0.68,0.2c-0.13,0.24-0.04,0.55,0.2,0.68c0.27,0.15,0.44,0.43,0.44,0.72c0,0.3-0.17,0.58-0.44,0.72
	c-0.24,0.13-0.33,0.44-0.2,0.68c0.13,0.24,0.44,0.33,0.68,0.2c0.59-0.32,0.95-0.94,0.95-1.6S39.41,4.47,38.83,4.14L38.83,4.14z"/>
<g>
	<path class="st0" d="M7.56,2.37L3.04,8.79h4.73v1.7H0.59V9.1l4.54-6.42H0.73V0.99h6.83V2.37z"/>
	<path class="st0" d="M10.79,0.99v7.85h4.42v1.66H8.98v-9.5H10.79z"/>
</g>
<g>
</g>
<g>
</g>
<g>
</g>
<g>
</g>
<g>
</g>
<g>
</g>
</svg>
