<?xml version="1.0" encoding="utf-8"?>
<!-- Generator: Adobe Illustrator 27.0.0, SVG Export Plug-In . SVG Version: 6.00 Build 0)  -->
<svg version="1.1" id="uuid-ecbf7a7a-b73f-46a5-9762-69ea44f9cc1c"
	 xmlns="http://www.w3.org/2000/svg" xmlns:xlink="http://www.w3.org/1999/xlink" x="0px" y="0px" viewBox="0 0 338.8 338.8"
	 style="enable-background:new 0 0 338.8 338.8;" xml:space="preserve">
<style type="text/css">
	.st0{fill:none;stroke:#57606E;stroke-width:27;stroke-linecap:round;stroke-linejoin:round;}
	.st1{fill:#57606E;}
</style>
<path class="st0" d="M46.3,13.5h246.1c18.1,0,32.8,14.7,32.8,32.8v246.1c0,18.1-14.7,32.8-32.8,32.8H46.3
	c-18.1,0-32.8-14.7-32.8-32.8V46.3C13.5,28.2,28.2,13.5,46.3,13.5z"/>
<path class="st1" d="M140.6,96.6l-35,35H65.5c-5.3,0-9.5,4.2-9.5,9.5v56.7c0,5.3,4.2,9.5,9.5,9.5h40.1l35,35
	c5.9,5.9,16.1,1.7,16.1-6.6V103.4C156.6,94.9,146.4,90.7,140.6,96.6z M232.5,76.5c-4.4-2.8-10.4-1.7-13.2,2.6
	c-2.8,4.4-1.7,10.4,2.6,13.2c26.1,17.2,41.6,46,41.6,77s-15.5,60-41.6,77c-4.4,2.8-5.7,8.9-2.6,13.2c2.8,4.2,8.7,5.7,13.2,2.6
	c31.4-20.6,50.3-55.4,50.3-92.9S263.9,97.1,232.5,76.5z M245,169.4c0-25-12.7-48-33.9-61.5c-4.4-2.8-10.2-1.5-13.1,3
	c-2.8,4.4-1.5,10.4,2.8,13.1c15.7,10,25,27,25,45.4s-9.3,35.4-25,45.4c-4.4,2.8-5.7,8.7-2.8,13.1c2.6,4.2,8.3,6.1,13.1,3
	C232.3,217.4,245,194.4,245,169.4z M189.2,139.1c-4.5-2.5-10.4-0.8-12.9,3.8c-2.5,4.5-0.8,10.4,3.8,12.9c5.1,2.8,8.3,8.1,8.3,13.6
	c0,5.7-3.2,11-8.3,13.6c-4.5,2.5-6.2,8.3-3.8,12.9c2.5,4.5,8.3,6.2,12.9,3.8c11.2-6.1,18-17.8,18-30.3
	C207.1,156.9,200.1,145.4,189.2,139.1L189.2,139.1z"/>
</svg>
