<?xml version="1.0" encoding="utf-8"?>
<!-- Generator: Adobe Illustrator 27.0.0, SVG Export Plug-In . SVG Version: 6.00 Build 0)  -->
<svg version="1.1" id="Layer_1" xmlns="http://www.w3.org/2000/svg" xmlns:xlink="http://www.w3.org/1999/xlink" x="0px" y="0px"
	 viewBox="0 0 83.02 12.11" style="enable-background:new 0 0 83.02 12.11;" xml:space="preserve">
<style type="text/css">
	.st0{fill:#FFFFFF;stroke:#000000;stroke-width:0.5;stroke-linecap:round;stroke-linejoin:round;stroke-miterlimit:10;}
	.st1{fill:#FFFFFF;stroke:#000000;stroke-width:0.5;stroke-miterlimit:10;}
</style>
<g>
	<path class="st0" d="M26.09,2.9l-4.52,6.42h4.73v1.7h-7.18V9.63l4.54-6.42h-4.39v-1.7h6.83V2.9H26.09z"/>
	<path class="st0" d="M29.32,1.51v7.85h4.42v1.66h-6.23v-9.5L29.32,1.51L29.32,1.51z"/>
	<path class="st0" d="M40.99,1.51v9.5h-1.81v-9.5C39.18,1.51,40.99,1.51,40.99,1.51z"/>
	<path class="st0" d="M42.57,11.02V4.07h1.75v0.92h0.06c0.2-0.34,0.47-0.6,0.82-0.8C45.55,4,45.93,3.9,46.36,3.9
		c0.71,0,1.27,0.23,1.66,0.68c0.4,0.46,0.59,1.1,0.59,1.93v4.5h-1.75V6.9c0-0.41-0.11-0.73-0.32-0.98
		c-0.21-0.24-0.49-0.37-0.85-0.37c-0.42,0-0.75,0.13-1,0.4c-0.25,0.26-0.38,0.62-0.38,1.07v4H42.57z"/>
	<path class="st0" d="M52.48,2.82c-0.17,0.15-0.25,0.37-0.25,0.65v0.6h1.72v1.66h-1.72v5.29h-1.75V5.73H49.5V4.07h0.98V3.36
		c0-0.77,0.2-1.36,0.59-1.78s0.95-0.63,1.68-0.63c0.52,0,0.94,0.06,1.25,0.19v1.67c-0.33-0.14-0.62-0.22-0.86-0.22
		C52.86,2.59,52.65,2.67,52.48,2.82z"/>
	<path class="st0" d="M54.94,1.51h1.75v7.44c0,0.3,0.15,0.44,0.44,0.44h0.34v1.66h-0.88c-0.54,0-0.95-0.13-1.23-0.4
		c-0.28-0.26-0.43-0.64-0.43-1.14v-8H54.94z"/>
	<path class="st0" d="M58.7,10.66c-0.4-0.35-0.59-0.84-0.59-1.45c0-0.74,0.3-1.31,0.89-1.73s1.41-0.63,2.45-0.63h0.72V6.58
		c0-0.38-0.11-0.67-0.32-0.88s-0.51-0.31-0.88-0.31c-0.53,0-1.01,0.24-1.44,0.72L58.42,5.2c0.74-0.86,1.66-1.3,2.76-1.3
		c0.54,0,1.02,0.11,1.44,0.32c0.42,0.22,0.74,0.52,0.97,0.91s0.34,0.84,0.34,1.35v4.54h-1.75v-0.84H62.1
		c-0.15,0.32-0.39,0.57-0.73,0.74s-0.71,0.26-1.13,0.26C59.61,11.19,59.1,11.01,58.7,10.66z M61.75,9.43
		c0.28-0.2,0.42-0.48,0.42-0.84V8.3h-0.52c-0.59,0-1.03,0.06-1.33,0.19s-0.44,0.33-0.44,0.61c0,0.18,0.08,0.34,0.23,0.46
		c0.16,0.12,0.37,0.18,0.63,0.18C61.14,9.74,61.47,9.63,61.75,9.43z"/>
	<path class="st0" d="M69.47,5.73h-1.84v2.92c0,0.28,0.08,0.5,0.23,0.65c0.16,0.15,0.38,0.23,0.67,0.23c0.26,0,0.53-0.04,0.79-0.12
		v1.64c-0.37,0.11-0.77,0.17-1.2,0.17c-0.73,0-1.28-0.2-1.67-0.6c-0.38-0.4-0.58-0.98-0.58-1.73V5.73H64.8V4.07h1.08v-2h1.75v2h1.84
		V5.73z"/>
	<path class="st0" d="M71.6,10.74c-0.5-0.3-0.88-0.72-1.15-1.27c-0.27-0.55-0.4-1.19-0.4-1.94c0-0.74,0.13-1.38,0.4-1.93
		c0.27-0.55,0.65-0.97,1.15-1.27c0.5-0.3,1.09-0.44,1.76-0.44c0.67,0,1.26,0.15,1.75,0.44c0.5,0.3,0.88,0.72,1.15,1.27
		s0.4,1.19,0.4,1.93c0,0.74-0.13,1.39-0.4,1.94c-0.27,0.55-0.65,0.97-1.15,1.27s-1.08,0.44-1.75,0.44
		C72.69,11.19,72.1,11.04,71.6,10.74z M74.46,8.99c0.27-0.36,0.41-0.84,0.41-1.45s-0.14-1.09-0.41-1.45s-0.64-0.53-1.1-0.53
		c-0.47,0-0.84,0.18-1.12,0.53s-0.41,0.84-0.41,1.45s0.14,1.09,0.41,1.45s0.64,0.54,1.12,0.54C73.82,9.53,74.19,9.35,74.46,8.99z"/>
	<path class="st0" d="M77.92,11.02l-0.07-6.95h1.82v1.28h0.07c0.5-0.97,1.36-1.45,2.56-1.45h0.07v1.74h-0.11
		c-1.73,0-2.59,0.61-2.59,1.84v3.54H77.92z"/>
</g>
<path class="st1" d="M5.03,2.23L3.18,4.08H1.05c-0.28,0-0.5,0.22-0.5,0.5v3c0,0.28,0.22,0.5,0.5,0.5h2.12l1.85,1.85
	c0.31,0.31,0.85,0.09,0.85-0.35v-7C5.88,2.14,5.34,1.92,5.03,2.23z M9.89,1.17c-0.23-0.15-0.55-0.09-0.7,0.14
	C9.04,1.54,9.1,1.86,9.33,2.01c1.38,0.91,2.2,2.43,2.2,4.07s-0.82,3.17-2.2,4.07c-0.23,0.15-0.3,0.47-0.14,0.7
	c0.15,0.22,0.46,0.3,0.7,0.14c1.66-1.09,2.66-2.93,2.66-4.91S11.55,2.26,9.89,1.17z M10.54,6.08c0-1.32-0.67-2.54-1.79-3.25
	C8.53,2.68,8.22,2.75,8.07,2.98c-0.15,0.24-0.08,0.55,0.15,0.7c0.83,0.53,1.32,1.43,1.32,2.4s-0.49,1.87-1.32,2.4
	c-0.23,0.15-0.3,0.46-0.15,0.69c0.14,0.22,0.44,0.32,0.69,0.16C9.88,8.62,10.54,7.4,10.54,6.08z M7.59,4.48
	c-0.24-0.13-0.55-0.04-0.68,0.2c-0.13,0.24-0.04,0.55,0.2,0.68C7.38,5.5,7.55,5.78,7.55,6.08c0,0.3-0.17,0.58-0.44,0.72
	c-0.24,0.13-0.33,0.44-0.2,0.68s0.44,0.33,0.68,0.2c0.59-0.32,0.95-0.94,0.95-1.6S8.18,4.8,7.59,4.48L7.59,4.48z"/>
</svg>
