<?xml version="1.0" encoding="utf-8"?>
<!-- Generator: Adobe Illustrator 27.0.0, SVG Export Plug-In . SVG Version: 6.00 Build 0)  -->
<svg version="1.1" id="图层_1" xmlns="http://www.w3.org/2000/svg" xmlns:xlink="http://www.w3.org/1999/xlink" x="0px" y="0px"
	 viewBox="0 0 76.86 10.83" style="enable-background:new 0 0 76.86 10.83;" xml:space="preserve">
<style type="text/css">
	.st0{fill:#565F6C;}
	.st1{fill:#555E6B;}
</style>
<g>
	<path class="st0" d="M19.59,2.19l-4.52,6.42h4.73v1.7h-7.18V8.92l4.54-6.42h-4.39V0.81h6.83V2.19z"/>
	<path class="st0" d="M22.82,0.81v7.85h4.42v1.66h-6.23v-9.5H22.82z"/>
	<path class="st0" d="M34.5,0.81v9.5h-1.81v-9.5H34.5z"/>
	<path class="st0" d="M36.07,10.31V3.37h1.75v0.92h0.06c0.2-0.34,0.47-0.6,0.82-0.8c0.35-0.2,0.73-0.29,1.16-0.29
		c0.71,0,1.27,0.23,1.66,0.68c0.4,0.46,0.59,1.1,0.59,1.93v4.5h-1.75V6.2c0-0.41-0.11-0.73-0.32-0.98
		c-0.21-0.24-0.49-0.37-0.85-0.37c-0.42,0-0.75,0.13-1,0.4c-0.25,0.26-0.38,0.62-0.38,1.07v4H36.07z"/>
	<path class="st0" d="M45.98,2.11c-0.17,0.15-0.25,0.37-0.25,0.65v0.6h1.72v1.66h-1.72v5.29h-1.75V5.02h-0.98V3.37h0.98V2.66
		c0-0.77,0.2-1.36,0.59-1.78c0.39-0.42,0.95-0.63,1.68-0.63c0.52,0,0.94,0.06,1.25,0.19v1.67c-0.33-0.14-0.62-0.22-0.86-0.22
		C46.36,1.89,46.15,1.96,45.98,2.11z"/>
	<path class="st0" d="M48.44,0.81h1.75v7.44c0,0.3,0.15,0.44,0.44,0.44h0.34v1.66H50.1c-0.54,0-0.95-0.13-1.23-0.4
		c-0.28-0.26-0.43-0.64-0.43-1.14V0.81z"/>
	<path class="st0" d="M52.2,9.95c-0.4-0.35-0.59-0.84-0.59-1.45c0-0.74,0.3-1.31,0.89-1.73s1.41-0.63,2.45-0.63h0.72V5.87
		c0-0.38-0.11-0.67-0.32-0.88c-0.21-0.21-0.51-0.31-0.88-0.31c-0.53,0-1.01,0.24-1.44,0.72l-1.12-0.91c0.74-0.86,1.66-1.3,2.76-1.3
		c0.54,0,1.02,0.11,1.44,0.32c0.42,0.22,0.74,0.52,0.97,0.91s0.34,0.84,0.34,1.35v4.54h-1.75V9.47H55.6
		c-0.15,0.32-0.39,0.57-0.73,0.74s-0.71,0.26-1.13,0.26C53.11,10.48,52.6,10.31,52.2,9.95z M55.26,8.73
		c0.28-0.2,0.42-0.48,0.42-0.84v-0.3h-0.52c-0.59,0-1.03,0.06-1.33,0.19S53.4,8.11,53.4,8.39c0,0.18,0.08,0.34,0.23,0.46
		c0.16,0.12,0.37,0.18,0.63,0.18C54.64,9.03,54.98,8.93,55.26,8.73z"/>
	<path class="st0" d="M62.97,5.02h-1.84v2.92c0,0.28,0.08,0.5,0.23,0.65c0.16,0.15,0.38,0.23,0.67,0.23c0.26,0,0.53-0.04,0.79-0.12
		v1.64c-0.37,0.11-0.77,0.17-1.2,0.17c-0.73,0-1.28-0.2-1.67-0.6c-0.38-0.4-0.58-0.98-0.58-1.73V5.02H58.3V3.37h1.08v-2h1.75v2h1.84
		V5.02z"/>
	<path class="st0" d="M65.1,10.04c-0.5-0.3-0.88-0.72-1.15-1.27c-0.27-0.55-0.4-1.19-0.4-1.94c0-0.74,0.13-1.38,0.4-1.93
		c0.27-0.55,0.65-0.97,1.15-1.27c0.5-0.3,1.09-0.44,1.76-0.44c0.67,0,1.26,0.15,1.75,0.44c0.5,0.3,0.88,0.72,1.15,1.27
		s0.4,1.19,0.4,1.93c0,0.74-0.13,1.39-0.4,1.94c-0.27,0.55-0.65,0.97-1.15,1.27s-1.08,0.44-1.75,0.44
		C66.19,10.48,65.6,10.33,65.1,10.04z M67.96,8.29c0.27-0.36,0.41-0.84,0.41-1.45c0-0.61-0.14-1.09-0.41-1.45s-0.64-0.53-1.1-0.53
		c-0.47,0-0.84,0.18-1.12,0.53s-0.41,0.84-0.41,1.45c0,0.61,0.14,1.09,0.41,1.45c0.27,0.36,0.64,0.54,1.12,0.54
		C67.32,8.83,67.69,8.65,67.96,8.29z"/>
	<path class="st0" d="M71.42,10.31l-0.07-6.95h1.82v1.28h0.07c0.5-0.97,1.36-1.45,2.56-1.45h0.07v1.74h-0.11
		c-1.73,0-2.59,0.61-2.59,1.84v3.54H71.42z"/>
</g>
<path class="st1" d="M4.21,2.33L2.73,3.89h-1.8c-0.25,0-0.41,0.16-0.41,0.41v2.46c0,0.25,0.16,0.41,0.41,0.41h1.72l1.56,1.48
	c0.25,0.25,0.66,0.08,0.66-0.33V2.57C4.94,2.25,4.45,2.08,4.21,2.33z M8.22,1.51C8.06,1.34,7.73,1.43,7.65,1.59
	C7.49,1.75,7.57,2.08,7.73,2.16c1.15,0.74,1.8,1.97,1.8,3.36s-0.66,2.62-1.8,3.36C7.57,8.97,7.49,9.3,7.65,9.46
	c0.08,0.16,0.41,0.25,0.57,0.08c1.39-0.9,2.21-2.38,2.21-4.02S9.62,2.41,8.22,1.51z M8.72,5.53c0-1.07-0.57-2.05-1.48-2.62
	C7.08,2.74,6.83,2.82,6.75,2.98C6.58,3.15,6.67,3.39,6.83,3.56C7.49,3.97,7.9,4.71,7.9,5.53S7.49,7,6.83,7.49
	C6.67,7.58,6.58,7.82,6.75,8.07c0.08,0.16,0.33,0.25,0.57,0.16C8.22,7.58,8.72,6.59,8.72,5.53z M6.34,4.21
	C6.17,4.05,5.85,4.13,5.76,4.38c-0.08,0.16,0,0.49,0.16,0.57c0.25,0.08,0.33,0.33,0.33,0.57S6.09,6.02,5.93,6.1
	C5.76,6.18,5.68,6.43,5.76,6.67c0.08,0.25,0.33,0.25,0.57,0.16C6.83,6.59,7.08,6.1,7.08,5.53S6.83,4.46,6.34,4.21L6.34,4.21z"/>
<g>
</g>
<g>
</g>
<g>
</g>
<g>
</g>
<g>
</g>
<g>
</g>
</svg>
