<?xml version="1.0" encoding="utf-8"?>
<!-- Generator: Adobe Illustrator 27.0.0, SVG Export Plug-In . SVG Version: 6.00 Build 0)  -->
<svg version="1.1" id="Layer_1" xmlns="http://www.w3.org/2000/svg" xmlns:xlink="http://www.w3.org/1999/xlink" x="0px" y="0px"
	 viewBox="0 0 79.6 12.1" style="enable-background:new 0 0 79.6 12.1;" xml:space="preserve">
<style type="text/css">
	.st0{fill:#FFFFFF;stroke:#000000;stroke-width:0.5;stroke-linecap:round;stroke-linejoin:round;stroke-miterlimit:10;}
	.st1{fill:#FFFFFF;stroke:#000000;stroke-width:0.5;stroke-miterlimit:10;}
</style>
<g>
	<path class="st0" d="M22.1,2.9l-4.5,6.4h4.7V11h-7.2V9.6l4.5-6.4h-4.4V1.5h6.8L22.1,2.9L22.1,2.9z"/>
	<path class="st0" d="M25.3,1.5v7.8h4.4V11h-6.2V1.5L25.3,1.5L25.3,1.5z"/>
	<path class="st0" d="M37,1.5V11h-1.8V1.5C35.2,1.5,37,1.5,37,1.5z"/>
	<path class="st0" d="M38.6,11v-7h1.8V5h0.1c0.2-0.3,0.5-0.6,0.8-0.8c0.3-0.2,0.7-0.3,1.2-0.3c0.7,0,1.3,0.2,1.7,0.7
		c0.4,0.5,0.6,1.1,0.6,1.9V11h-1.8V6.9c0-0.4-0.1-0.7-0.3-1c-0.2-0.2-0.5-0.4-0.8-0.4c-0.4,0-0.8,0.1-1,0.4
		c-0.2,0.3-0.4,0.6-0.4,1.1v4H38.6z"/>
	<path class="st0" d="M48.5,2.8c-0.2,0.2-0.2,0.4-0.2,0.6v0.6H50v1.7h-1.7V11h-1.8V5.7h-1V4.1h1V3.4c0-0.8,0.2-1.4,0.6-1.8
		s1-0.6,1.7-0.6c0.5,0,0.9,0.1,1.2,0.2v1.7c-0.3-0.1-0.6-0.2-0.9-0.2C48.9,2.6,48.7,2.7,48.5,2.8z"/>
	<path class="st0" d="M50.9,1.5h1.8v7.4c0,0.3,0.2,0.4,0.4,0.4h0.3V11h-0.9c-0.5,0-1-0.1-1.2-0.4c-0.3-0.3-0.4-0.6-0.4-1.1L50.9,1.5
		C50.9,1.5,50.9,1.5,50.9,1.5z"/>
	<path class="st0" d="M54.7,10.7c-0.4-0.4-0.6-0.8-0.6-1.4c0-0.7,0.3-1.3,0.9-1.7s1.4-0.6,2.5-0.6h0.7V6.6c0-0.4-0.1-0.7-0.3-0.9
		S57.3,5.4,57,5.4c-0.5,0-1,0.2-1.4,0.7l-1.1-0.9c0.7-0.9,1.7-1.3,2.8-1.3c0.5,0,1,0.1,1.4,0.3c0.4,0.2,0.7,0.5,1,0.9
		s0.3,0.8,0.3,1.3V11h-1.8v-0.8h-0.1c-0.2,0.3-0.4,0.6-0.7,0.7s-0.7,0.3-1.1,0.3C55.6,11.2,55.1,11,54.7,10.7z M57.8,9.4
		C58,9.2,58.2,9,58.2,8.6V8.3h-0.5c-0.6,0-1,0.1-1.3,0.2s-0.4,0.3-0.4,0.6c0,0.2,0.1,0.3,0.2,0.5c0.2,0.1,0.4,0.2,0.6,0.2
		C57.1,9.7,57.5,9.6,57.8,9.4z"/>
	<path class="st0" d="M65.5,5.7h-1.8v2.9c0,0.3,0.1,0.5,0.2,0.6c0.2,0.1,0.4,0.2,0.7,0.2c0.3,0,0.5,0,0.8-0.1V11
		c-0.4,0.1-0.8,0.2-1.2,0.2c-0.7,0-1.3-0.2-1.7-0.6c-0.4-0.4-0.6-1-0.6-1.7V5.7h-1.1V4.1h1.1v-2h1.8v2h1.8V5.7z"/>
	<path class="st0" d="M67.6,10.7c-0.5-0.3-0.9-0.7-1.2-1.3C66.2,8.9,66,8.3,66,7.5c0-0.7,0.1-1.4,0.4-1.9c0.3-0.6,0.7-1,1.2-1.3
		c0.5-0.3,1.1-0.4,1.8-0.4c0.7,0,1.3,0.2,1.8,0.4C71.6,4.6,72,5,72.3,5.6s0.4,1.2,0.4,1.9s-0.1,1.4-0.4,1.9c-0.3,0.6-0.7,1-1.2,1.3
		s-1.1,0.4-1.8,0.4C68.7,11.2,68.1,11,67.6,10.7z M70.5,9c0.3-0.4,0.4-0.8,0.4-1.4s-0.1-1.1-0.4-1.4s-0.6-0.5-1.1-0.5
		c-0.5,0-0.8,0.2-1.1,0.5s-0.4,0.8-0.4,1.4S68,8.6,68.2,9s0.6,0.5,1.1,0.5C69.8,9.5,70.2,9.4,70.5,9z"/>
	<path class="st0" d="M73.9,11l-0.1-6.9h1.8v1.3h0.1c0.5-1,1.4-1.5,2.6-1.5h0.1v1.7h-0.1c-1.7,0-2.6,0.6-2.6,1.8V11H73.9z"/>
</g>
<path class="st1" d="M5,2.2L3.2,4.1H1c-0.3,0-0.5,0.2-0.5,0.5v3c0,0.3,0.2,0.5,0.5,0.5h2.1L5,9.9c0.3,0.3,0.8,0.1,0.8-0.4v-7
	C5.9,2.1,5.3,1.9,5,2.2z M9.9,1.2C9.7,1,9.3,1.1,9.2,1.3C9,1.5,9.1,1.9,9.3,2c1.4,0.9,2.2,2.4,2.2,4.1s-0.8,3.2-2.2,4.1
	c-0.2,0.1-0.3,0.5-0.1,0.7c0.1,0.2,0.5,0.3,0.7,0.1c1.7-1.1,2.7-2.9,2.7-4.9S11.6,2.3,9.9,1.2z M10.5,6.1c0-1.3-0.7-2.5-1.8-3.2
	C8.5,2.7,8.2,2.8,8.1,3C7.9,3.2,8,3.5,8.2,3.7C9,4.2,9.5,5.1,9.5,6.1S9,7.9,8.2,8.5C8,8.6,7.9,8.9,8.1,9.2c0.1,0.2,0.4,0.3,0.7,0.2
	C9.9,8.6,10.5,7.4,10.5,6.1z M7.6,4.5C7.4,4.3,7,4.4,6.9,4.7c-0.1,0.2,0,0.6,0.2,0.7c0.3,0.1,0.4,0.4,0.4,0.7c0,0.3-0.2,0.6-0.4,0.7
	C6.9,6.9,6.8,7.2,6.9,7.5s0.4,0.3,0.7,0.2c0.6-0.3,0.9-0.9,0.9-1.6S8.2,4.8,7.6,4.5L7.6,4.5z"/>
</svg>
